<?xml version="1.0" standalone="no"?>
<!DOCTYPE svg PUBLIC "-//W3C//DTD SVG 20010904//EN"
 "http://www.w3.org/TR/2001/REC-SVG-20010904/DTD/svg10.dtd">
<svg version="1.0" xmlns="http://www.w3.org/2000/svg"
 width="4320.000000pt" height="4320.000000pt" viewBox="0 0 4320.000000 4320.000000"
 preserveAspectRatio="xMidYMid meet">
<metadata>
Created by potrace 1.14, written by Peter Selinger 2001-2017
</metadata>
<g transform="translate(0.000000,4320.000000) scale(0.100000,-0.100000)"
fill="#000000" stroke="none">
<path d="M7 25842 c-2 -4 -3 -1499 -2 -3322 0 -3133 1 -3315 18 -3314 9 1 17
-1 17 -5 0 -3 13 -6 29 -6 16 0 27 3 24 7 -2 5 7 4 21 -2 15 -5 28 -6 31 0 3
6 15 6 30 0 15 -6 27 -6 30 0 4 6 13 7 23 1 11 -6 24 -6 34 0 10 6 19 6 23 0
4 -7 15 -7 31 -1 14 6 23 7 21 2 -3 -4 8 -7 24 -7 16 0 29 3 29 7 0 4 11 3 24
-2 15 -5 27 -5 34 2 6 6 12 6 16 -1 5 -7 15 -7 32 -1 14 6 23 7 21 2 -3 -4 8
-7 24 -7 16 0 29 3 29 7 0 4 10 4 22 -1 12 -4 37 -5 55 -1 18 5 35 4 38 -1 3
-4 16 -4 28 0 12 5 32 5 44 0 13 -5 25 -4 28 1 3 6 15 6 30 0 15 -6 27 -6 30
0 4 6 13 7 23 1 11 -6 24 -6 34 0 10 6 19 6 23 0 4 -7 15 -7 31 -1 14 6 23 7
21 2 -3 -4 8 -7 24 -7 16 0 29 3 29 7 0 4 11 3 24 -2 15 -5 27 -5 34 2 6 6 12
6 16 -1 5 -7 15 -7 32 -1 14 6 23 7 21 2 -3 -4 8 -7 24 -7 16 0 29 4 29 8 0 5
5 5 10 2 18 -11 171 -9 178 2 5 8 8 6566 3 6630 -1 9 -166 12 -696 12 -382 0
-696 -4 -698 -7z"/>
<path d="M8213 22532 c-1 -2922 1 -3318 14 -3329 10 -8 23 -9 39 -3 13 5 24 6
24 2 0 -4 32 -7 70 -7 39 0 70 4 70 8 0 5 4 5 10 2 16 -10 80 -12 80 -3 0 5 9
4 19 -2 13 -7 22 -7 26 0 4 6 13 7 24 1 9 -5 23 -6 31 -1 7 4 24 4 36 0 14 -6
26 -5 29 0 4 6 13 7 24 1 10 -6 23 -6 31 -1 8 5 19 6 25 2 14 -9 47 -9 68 1 9
4 17 4 17 0 0 -9 124 -8 139 1 5 4 12 2 16 -3 3 -6 15 -7 28 -2 12 5 32 5 44
0 13 -5 25 -4 28 1 3 6 15 6 30 0 15 -6 27 -6 30 1 4 6 13 6 23 0 10 -6 23 -6
34 0 10 6 19 5 23 -1 4 -6 15 -6 31 0 14 6 23 7 21 2 -3 -4 8 -7 24 -7 16 0
29 3 29 7 0 4 11 3 24 -2 15 -5 27 -5 34 2 6 6 12 6 16 -1 5 -7 15 -7 32 -1
14 6 23 7 21 2 -3 -4 8 -7 24 -7 16 0 29 3 29 7 0 4 10 4 23 0 12 -5 30 -7 40
-4 16 3 17 41 17 611 0 501 2 610 14 626 7 11 56 61 107 112 52 51 197 193
323 318 182 180 231 223 242 214 8 -6 14 -18 14 -25 0 -8 4 -14 8 -14 4 0 24
-21 44 -48 20 -26 45 -57 55 -68 10 -12 32 -39 48 -60 17 -21 38 -46 48 -56 9
-10 17 -20 17 -23 0 -3 24 -34 53 -68 53 -64 76 -93 163 -202 27 -33 52 -61
56 -63 4 -2 8 -10 8 -18 0 -8 4 -14 8 -14 5 0 22 -19 39 -42 17 -24 39 -52 50
-63 10 -11 30 -36 45 -57 15 -20 33 -42 40 -50 7 -7 31 -36 53 -63 22 -28 44
-55 50 -61 5 -7 19 -24 30 -40 11 -15 25 -32 30 -38 6 -6 34 -40 63 -76 28
-36 58 -72 65 -80 7 -8 85 -105 172 -215 88 -110 168 -209 178 -220 11 -11 33
-39 50 -62 17 -24 34 -43 38 -43 4 0 10 -8 14 -17 11 -35 67 -86 97 -89 16 -2
33 -6 38 -9 5 -3 11 -1 15 5 4 6 12 7 24 1 10 -6 23 -6 31 -1 8 5 19 6 25 2
14 -9 47 -9 68 1 9 4 17 4 17 0 0 -9 137 -9 146 0 3 3 16 2 28 -3 13 -4 29 -4
39 1 9 6 17 6 17 1 0 -8 69 -7 77 2 3 3 15 1 27 -4 12 -4 29 -4 38 1 10 6 19
6 22 0 3 -5 21 -5 41 -1 19 4 37 4 40 -1 3 -4 17 -4 30 1 14 5 25 6 25 2 0 -4
11 -7 25 -7 14 0 25 3 25 7 0 4 11 3 24 -2 15 -5 27 -5 34 2 6 6 12 6 16 -1 5
-7 15 -7 31 -1 15 6 25 6 25 0 0 -5 12 -5 30 0 17 5 32 5 35 0 3 -5 16 -5 30
0 14 5 25 6 25 2 0 -4 13 -7 29 -7 16 0 27 3 24 7 -2 5 7 4 21 -2 16 -6 27 -6
31 1 4 5 11 6 17 3 15 -10 68 -11 68 -2 0 4 11 3 25 -2 14 -5 35 -6 48 -1 12
5 31 5 42 1 11 -4 28 -3 38 2 9 5 17 5 17 0 0 -8 69 -7 77 2 3 3 15 1 27 -4
13 -4 29 -4 39 1 11 6 17 6 17 1 0 -6 14 -7 34 -2 22 5 39 3 45 -3 8 -8 11 -7
11 4 0 7 -27 48 -60 89 -33 41 -64 80 -68 85 -4 6 -28 35 -52 66 -25 31 -54
68 -65 82 -32 41 -210 268 -343 436 -67 86 -133 169 -145 185 -12 15 -28 34
-34 41 -7 8 -13 18 -13 23 0 6 -4 12 -9 14 -5 2 -44 48 -86 103 -43 55 -84
107 -91 115 -39 44 -74 88 -74 94 0 3 -9 16 -20 29 -34 36 -45 50 -76 92 -16
22 -41 54 -56 70 -16 17 -28 33 -28 36 0 3 -10 17 -22 31 -13 14 -48 58 -78
98 -30 39 -62 80 -70 90 -19 22 -46 57 -155 195 -132 168 -138 176 -170 215
-16 20 -41 52 -55 70 -82 109 -233 296 -241 298 -5 2 -9 9 -9 16 0 8 -10 24
-23 37 -31 32 -127 158 -127 167 0 4 111 120 248 259 249 253 897 913 1187
1208 86 88 247 251 357 363 110 112 198 205 195 208 -3 4 -1234 7 -1609 4 -46
0 -50 -3 -150 -99 -57 -54 -119 -114 -139 -132 -62 -57 -318 -300 -387 -366
-35 -35 -69 -63 -73 -63 -5 0 -9 -7 -9 -15 0 -8 -3 -15 -7 -15 -5 0 -46 -36
-93 -80 -47 -45 -141 -133 -209 -198 -69 -64 -153 -144 -187 -177 -34 -33
-114 -109 -179 -170 -64 -60 -145 -137 -180 -170 -55 -53 -185 -176 -400 -380
l-70 -66 -3 1880 -2 1880 -698 -1 -699 0 0 -3316z"/>
<path d="M25567 25842 c-2 -4 -3 -1498 -2 -3320 1 -2861 3 -3314 15 -3322 9
-5 19 -5 26 1 8 7 14 7 18 0 5 -7 15 -7 31 -1 14 5 25 6 25 2 0 -4 13 -7 29
-7 16 0 27 3 24 7 -2 5 7 4 21 -2 16 -6 27 -6 31 1 4 5 11 6 17 3 15 -10 68
-11 68 -2 0 4 11 3 25 -2 14 -5 35 -6 48 -1 12 5 31 5 42 1 11 -4 28 -3 38 2
9 5 17 5 17 0 0 -8 69 -7 77 2 3 3 16 1 29 -4 14 -6 24 -6 24 -1 0 5 8 7 18 5
16 -5 17 157 15 3313 -1 1825 -2 3321 -2 3325 -1 9 -630 9 -634 0z"/>
<path d="M4727 24093 c-1 0 -42 -4 -92 -7 -138 -8 -225 -16 -254 -22 -14 -3
-37 -7 -51 -9 -112 -14 -269 -49 -410 -91 -63 -19 -122 -38 -130 -41 -8 -3
-17 -7 -20 -8 -6 -2 -27 -10 -120 -48 -95 -39 -287 -137 -345 -177 -24 -16
-46 -30 -50 -30 -6 0 -65 -40 -75 -50 -3 -3 -21 -17 -40 -30 -71 -48 -188
-147 -276 -235 -80 -79 -220 -241 -249 -286 -5 -9 -31 -47 -56 -85 -89 -132
-158 -265 -223 -429 -16 -38 -32 -79 -36 -90 -5 -11 -12 -33 -16 -50 -8 -33
-8 -34 -17 -55 -3 -8 -9 -28 -13 -45 -4 -16 -8 -34 -10 -40 -4 -14 -13 -53
-24 -100 -4 -22 -10 -49 -13 -60 -4 -17 -15 -89 -23 -150 -7 -54 -17 -196 -18
-247 -1 -32 -5 -58 -9 -58 -5 0 -5 -5 -1 -11 3 -6 8 -63 10 -127 2 -65 6 -135
8 -157 3 -22 8 -69 12 -105 3 -36 8 -69 11 -73 2 -4 6 -22 9 -40 3 -25 21
-117 29 -147 1 -3 7 -25 13 -50 17 -63 49 -162 80 -245 15 -38 27 -72 27 -75
2 -9 116 -235 138 -270 38 -63 97 -155 112 -175 134 -175 290 -343 400 -430
27 -22 61 -50 75 -62 14 -13 28 -23 31 -23 3 0 18 -10 32 -22 15 -13 66 -47
114 -77 48 -30 99 -61 113 -71 14 -9 40 -23 58 -31 17 -7 32 -17 32 -21 0 -5
5 -8 11 -8 6 0 41 -14 78 -31 36 -17 77 -35 91 -41 14 -6 37 -17 53 -25 15 -8
27 -11 27 -8 0 3 10 0 23 -7 12 -6 27 -13 32 -14 6 -1 44 -14 85 -28 41 -15
76 -27 77 -27 2 0 8 -2 15 -4 7 -2 58 -15 113 -29 128 -31 256 -52 430 -73
123 -14 717 -5 744 11 4 3 34 8 66 11 33 4 63 9 66 11 4 2 24 6 45 10 121 18
463 118 539 158 17 9 34 16 38 16 21 0 304 149 354 186 17 13 36 24 42 24 6 0
11 4 11 9 0 5 14 14 30 21 17 7 30 16 30 21 0 5 5 9 11 9 5 0 24 13 42 30 18
16 35 30 39 30 4 0 13 6 20 13 7 6 31 27 53 46 151 127 291 282 402 445 34 50
66 96 70 102 31 42 139 252 173 339 47 116 91 248 85 253 -3 3 -1 10 4 16 7
10 26 75 37 131 49 250 58 341 58 590 0 177 -7 278 -30 408 -3 17 -7 48 -10
67 -11 80 -69 284 -116 410 -59 158 -170 382 -220 445 -5 6 -23 33 -41 60 -17
28 -37 57 -44 65 -86 108 -113 141 -143 174 -70 77 -167 169 -240 229 -41 34
-77 64 -80 67 -3 3 -16 13 -30 22 -14 10 -51 35 -84 58 -32 22 -60 40 -63 40
-2 0 -24 13 -47 29 -78 54 -426 221 -426 204 0 -3 -6 -1 -12 5 -11 9 -208 74
-263 87 -98 23 -321 66 -365 70 -30 3 -68 7 -85 10 -54 8 -423 24 -428 18z
m228 -1153 c0 -1 16 -3 35 -6 35 -4 59 -8 115 -19 115 -22 300 -102 416 -180
187 -127 353 -351 434 -585 1 -3 4 -12 8 -20 10 -25 37 -121 35 -128 -1 -4 1
-14 5 -22 9 -22 28 -153 33 -218 11 -152 3 -327 -21 -467 -18 -104 -89 -326
-107 -333 -4 -2 -6 -7 -3 -12 3 -5 -3 -16 -12 -26 -10 -10 -17 -19 -15 -21 7
-9 -78 -144 -133 -212 -26 -31 -92 -98 -136 -136 -77 -68 -221 -160 -233 -148
-3 3 -6 1 -6 -5 0 -6 -13 -13 -30 -17 -16 -4 -30 -10 -30 -14 0 -3 -21 -13
-47 -20 -27 -8 -66 -20 -88 -27 -41 -12 -118 -29 -189 -39 -21 -3 -42 -8 -47
-11 -5 -3 -9 -1 -9 4 0 6 -14 7 -32 3 -29 -6 -106 -6 -240 2 -21 1 -38 6 -38
10 0 5 -4 6 -9 3 -10 -7 -186 31 -214 46 -10 5 -27 11 -37 13 -29 6 -175 76
-178 86 -2 5 -8 9 -13 9 -38 0 -248 183 -315 275 -16 22 -31 42 -35 45 -3 3
-21 32 -41 65 -83 138 -144 302 -173 470 -14 78 -16 94 -19 153 -2 35 -6 66
-9 69 -4 3 -2 13 3 22 5 10 5 23 0 31 -4 7 -7 18 -5 24 2 6 6 58 10 116 8 143
11 166 42 295 33 142 162 428 200 442 7 3 13 10 13 17 0 33 209 228 315 293
55 34 219 110 255 118 8 2 43 11 77 20 66 17 97 22 183 31 30 3 56 7 57 8 2 2
228 -2 228 -4z"/>
<path d="M15947 24094 c-1 -1 -51 -4 -112 -8 -60 -4 -126 -9 -145 -11 -19 -3
-57 -7 -85 -10 -27 -2 -50 -5 -50 -5 0 -1 -11 -3 -25 -6 -90 -15 -201 -39
-300 -65 -63 -17 -121 -31 -127 -32 -7 0 -13 -4 -13 -9 0 -4 -8 -8 -17 -8 -19
0 -131 -40 -198 -70 -158 -70 -338 -164 -363 -187 -7 -7 -20 -13 -28 -13 -8 0
-14 -4 -14 -8 0 -4 -22 -21 -50 -37 -27 -16 -50 -33 -50 -37 0 -5 -8 -12 -17
-15 -23 -8 -116 -82 -193 -153 -15 -14 -45 -41 -66 -61 -52 -47 -176 -186
-191 -213 -7 -11 -13 -16 -13 -11 0 6 -6 1 -13 -11 -6 -12 -25 -40 -42 -64
-16 -24 -34 -50 -40 -59 -5 -9 -13 -18 -16 -21 -16 -13 -151 -259 -188 -344
-46 -106 -107 -278 -116 -327 -3 -17 -11 -41 -17 -53 -6 -11 -10 -22 -9 -24 1
-1 -3 -26 -9 -55 -13 -66 -21 -106 -25 -132 -23 -154 -25 -176 -31 -325 -3
-74 -6 -139 -6 -145 2 -56 13 -228 17 -255 15 -96 26 -177 26 -192 0 -10 5
-20 10 -23 5 -4 7 -10 4 -15 -3 -5 1 -33 10 -61 8 -29 13 -55 10 -57 -3 -3 0
-11 6 -19 6 -7 9 -13 5 -13 -3 0 0 -17 8 -37 7 -21 20 -58 27 -83 35 -121 176
-433 203 -452 6 -4 7 -8 3 -8 -4 0 3 -15 17 -33 15 -19 26 -37 26 -41 0 -4 8
-18 18 -31 9 -12 24 -33 32 -45 8 -12 21 -28 28 -36 6 -7 12 -17 12 -23 0 -6
4 -11 8 -11 5 0 13 -8 18 -19 34 -71 307 -343 454 -452 119 -89 271 -184 375
-235 33 -16 63 -33 66 -37 3 -5 9 -8 13 -8 3 1 23 -6 44 -15 20 -9 42 -18 47
-20 6 -2 55 -20 110 -42 55 -21 152 -53 216 -70 114 -32 135 -37 194 -47 17
-3 37 -8 45 -10 8 -2 29 -6 45 -9 102 -17 158 -25 164 -24 3 0 8 -1 11 -2 54
-22 684 -19 795 4 12 2 48 8 80 12 33 4 62 8 65 9 3 1 19 4 35 8 17 4 41 9 55
11 14 2 45 9 70 16 25 6 59 13 75 16 17 3 38 10 47 15 9 5 21 8 25 7 4 -1 18
3 31 10 12 7 22 10 22 7 0 -2 22 4 49 15 27 10 52 16 55 13 3 -4 6 -1 6 5 0 7
3 11 8 9 24 -7 462 201 470 224 2 5 8 9 14 9 6 0 47 26 92 57 242 169 460 386
606 603 25 36 47 67 50 70 4 3 10 12 13 20 4 8 23 42 42 75 49 85 129 253 154
320 6 17 16 44 22 60 7 17 13 36 15 42 1 7 11 41 22 75 18 56 31 104 37 133 5
21 25 121 29 142 5 23 15 90 21 138 18 134 24 389 12 545 -11 149 -34 296 -63
405 -8 33 -18 69 -20 80 -11 44 -13 50 -14 53 -2 1 -3 5 -4 10 -10 35 -40 130
-46 142 -5 8 -16 35 -25 60 -27 67 -128 273 -142 288 -6 6 -15 22 -19 35 -4
12 -10 24 -13 27 -4 3 -28 37 -53 75 -25 39 -54 81 -65 94 -92 118 -131 162
-237 266 -125 124 -262 233 -409 325 -26 17 -52 30 -57 30 -6 0 -10 3 -10 8 0
4 -10 12 -23 18 -12 6 -62 31 -112 56 -49 25 -107 53 -127 62 -21 9 -53 23
-72 31 -19 8 -36 15 -39 15 -3 0 -18 5 -34 12 -15 6 -30 12 -33 13 -3 0 -44
14 -92 29 -49 15 -96 29 -105 31 -10 2 -18 4 -18 5 0 2 -17 6 -60 15 -16 4
-34 8 -40 9 -36 9 -67 16 -120 25 -33 6 -73 14 -90 17 -68 12 -157 21 -300 29
-102 6 -275 12 -278 9z m253 -1158 c19 -2 47 -7 63 -10 15 -3 39 -8 55 -11 23
-4 50 -11 85 -20 4 -2 8 -3 10 -5 1 -1 9 -3 17 -5 36 -9 120 -42 134 -54 9 -8
16 -11 16 -7 0 8 114 -56 118 -66 2 -4 10 -8 17 -8 7 0 15 -3 17 -7 2 -5 21
-20 43 -35 35 -24 98 -84 193 -183 12 -13 22 -28 22 -34 0 -5 4 -11 9 -13 19
-7 147 -235 156 -276 2 -10 9 -30 16 -47 7 -16 13 -32 14 -35 21 -70 48 -188
62 -275 9 -61 11 -382 2 -440 -17 -112 -19 -120 -24 -145 -4 -14 -9 -38 -12
-55 -3 -16 -9 -38 -14 -47 -5 -10 -7 -18 -5 -18 8 0 -24 -85 -72 -190 -8 -19
-16 -37 -17 -40 -2 -11 -78 -136 -99 -161 -11 -15 -28 -37 -37 -48 -22 -29
-90 -100 -130 -136 -51 -46 -149 -117 -149 -108 0 4 -4 3 -8 -3 -24 -35 -248
-126 -367 -149 -22 -5 -47 -10 -55 -11 -62 -13 -320 -24 -320 -14 0 3 -15 5
-32 4 -85 -3 -291 48 -400 100 -30 14 -60 26 -66 26 -7 0 -12 5 -12 10 0 6 -5
10 -11 10 -14 0 -155 95 -184 124 -12 12 -37 35 -56 51 -82 73 -240 296 -231
328 1 4 -2 7 -8 7 -5 0 -10 5 -10 10 0 6 -9 29 -19 53 -19 42 -57 155 -66 195
-3 12 -7 32 -10 45 -3 12 -8 35 -10 50 -2 16 -6 40 -9 55 -23 115 -24 439 -1
522 2 8 7 33 10 55 3 22 12 65 21 95 8 30 17 62 19 70 2 8 4 16 5 18 2 1 3 5
4 10 4 16 18 58 25 77 26 63 134 260 150 275 3 3 29 32 56 65 28 32 70 77 94
100 60 55 199 154 227 161 13 3 24 10 24 15 0 5 6 9 13 9 6 0 26 7 42 16 39
20 201 74 240 79 16 2 30 4 30 5 0 3 28 7 84 14 30 4 56 8 57 9 4 3 246 -2
284 -7z"/>
<path d="M21928 23945 c-2 -2 -35 -6 -73 -9 -39 -3 -81 -8 -95 -10 -110 -17
-111 -17 -215 -41 -70 -16 -77 -17 -105 -27 -8 -3 -42 -13 -75 -23 -33 -9 -73
-23 -90 -31 -16 -7 -54 -22 -83 -34 -30 -11 -67 -27 -83 -35 -16 -9 -32 -15
-35 -14 -4 0 -10 -3 -13 -8 -3 -4 -31 -21 -61 -37 -30 -16 -62 -35 -71 -42 -8
-8 -21 -14 -27 -14 -7 0 -12 -4 -12 -9 0 -5 -8 -12 -19 -16 -10 -3 -28 -13
-39 -23 -11 -9 -33 -26 -48 -37 -120 -87 -280 -243 -364 -355 -61 -80 -120
-165 -120 -172 0 -5 -4 -8 -9 -8 -4 0 -8 203 -7 451 1 392 -1 452 -14 458 -8
3 -145 6 -305 5 l-290 -1 -1 -3221 c-1 -2676 2 -3224 13 -3233 7 -6 13 -8 13
-3 0 10 333 9 350 -1 5 -3 10 -3 10 2 0 10 93 8 109 -1 6 -4 11 -4 11 1 0 4
28 8 62 8 l63 0 5 1308 c5 1297 5 1308 24 1275 11 -18 22 -35 26 -38 3 -3 17
-21 30 -40 13 -19 29 -40 35 -46 6 -6 27 -30 46 -54 68 -84 250 -258 298 -284
9 -5 18 -13 21 -17 21 -31 343 -219 376 -219 7 0 14 -4 16 -10 2 -5 12 -11 23
-13 11 -2 34 -10 50 -16 83 -35 129 -50 136 -45 4 2 10 0 13 -5 5 -7 30 -15
74 -22 4 0 14 -5 22 -9 8 -4 31 -11 50 -14 19 -3 45 -8 58 -11 12 -3 30 -7 40
-9 11 -2 43 -7 73 -11 30 -3 61 -8 69 -10 87 -22 503 -23 630 -1 14 3 47 7 75
11 42 5 110 18 224 41 14 3 28 7 33 10 4 3 18 7 30 9 42 8 213 66 240 80 14 8
31 15 36 15 16 0 221 100 227 111 4 5 10 7 15 4 5 -3 11 -1 14 3 3 5 41 31 86
57 44 27 80 53 80 57 0 4 5 8 11 8 9 0 111 78 183 140 98 84 296 304 327 362
7 13 15 25 20 28 14 10 135 215 178 304 24 49 54 118 68 154 13 37 27 71 31
77 4 5 7 15 7 20 1 6 9 37 20 70 10 33 20 63 21 68 1 4 2 8 4 10 1 1 3 9 5 17
2 8 9 35 16 60 6 25 12 51 12 58 0 6 3 12 6 12 4 0 6 12 5 27 0 14 5 51 12 82
8 31 16 82 19 113 3 31 8 81 12 110 7 65 7 487 -1 543 -3 22 -8 60 -11 85 -9
69 -15 111 -25 160 -6 25 -12 56 -15 70 -33 163 -81 309 -149 460 -11 25 -20
47 -21 50 -1 12 -118 226 -131 241 -8 8 -14 20 -14 26 0 6 -3 13 -7 15 -10 4
-53 65 -53 73 0 4 -6 12 -12 19 -7 7 -24 28 -38 46 -14 18 -38 49 -54 69 -41
50 -244 251 -285 281 -18 14 -42 33 -52 43 -11 9 -23 17 -28 17 -5 0 -11 4
-13 8 -11 29 -280 185 -423 246 -49 21 -103 44 -120 51 -16 8 -48 19 -70 25
-22 6 -47 14 -55 17 -8 4 -25 8 -38 9 -13 2 -30 8 -38 15 -8 6 -14 9 -14 6 0
-3 -15 -1 -32 4 -18 6 -43 12 -55 15 -44 8 -68 13 -107 19 -21 4 -48 9 -60 11
-20 4 -52 8 -141 20 -45 6 -442 14 -447 9z m277 -559 c85 -6 104 -8 173 -21
15 -3 43 -8 62 -11 19 -3 67 -15 105 -26 39 -11 71 -20 72 -20 22 8 323 -134
394 -185 26 -18 51 -33 58 -33 6 0 11 -3 11 -8 0 -4 11 -14 24 -22 58 -36 190
-159 286 -266 47 -53 180 -251 180 -268 0 -8 4 -16 9 -18 7 -3 91 -171 91
-183 0 -2 5 -16 11 -32 6 -15 11 -30 11 -33 0 -3 4 -13 10 -23 5 -10 11 -26
13 -35 2 -9 11 -42 20 -72 8 -30 17 -68 20 -84 3 -16 8 -33 10 -37 3 -4 7 -24
10 -45 3 -22 8 -52 11 -69 3 -16 8 -50 11 -75 9 -66 9 -456 0 -520 -4 -30 -10
-75 -13 -100 -3 -25 -10 -63 -15 -85 -5 -22 -12 -51 -15 -65 -2 -14 -8 -34
-11 -45 -7 -20 -9 -27 -17 -62 -3 -10 -5 -18 -6 -18 -1 0 -3 -7 -5 -15 -17
-72 -124 -306 -171 -375 -13 -20 -24 -38 -24 -41 0 -3 -32 -49 -72 -101 -89
-119 -281 -313 -309 -313 -5 0 -9 -4 -9 -9 0 -6 -11 -16 -24 -23 -13 -7 -50
-31 -82 -52 -57 -38 -224 -127 -261 -139 -10 -4 -36 -13 -58 -22 -46 -18 -42
-17 -160 -50 -49 -14 -103 -28 -120 -30 -16 -2 -46 -7 -65 -10 -67 -11 -116
-15 -240 -20 -69 -3 -131 -7 -137 -10 -7 -2 -13 -1 -13 3 0 5 -17 8 -37 8 -21
0 -72 4 -113 9 -41 5 -79 9 -85 10 -5 1 -27 4 -47 8 -21 5 -40 8 -43 8 -2 0
-19 5 -37 10 -18 6 -40 12 -49 14 -138 31 -398 152 -535 251 -99 70 -244 206
-315 294 -24 30 -46 57 -50 60 -6 6 -76 112 -98 150 -122 214 -192 416 -236
680 -27 162 -27 556 0 670 3 14 8 41 11 60 3 19 12 64 20 100 9 36 18 76 20
90 3 13 11 28 17 32 7 4 9 8 5 8 -9 0 9 61 34 118 12 26 22 52 24 59 7 34 126
257 151 281 7 7 13 17 13 22 0 27 217 268 317 350 149 125 449 278 618 317 37
8 50 11 50 13 0 3 76 17 140 26 22 3 46 7 52 9 7 2 52 7 100 11 49 3 89 7 90
8 3 2 132 -2 218 -8z"/>
<path d="M29228 23945 c-2 -2 -42 -6 -90 -10 -49 -3 -98 -8 -110 -11 -13 -2
-44 -6 -69 -9 -25 -3 -70 -10 -100 -16 -30 -6 -65 -12 -79 -13 -14 -2 -54 -10
-90 -19 -36 -9 -76 -18 -90 -21 -14 -2 -46 -11 -72 -19 -27 -8 -48 -13 -48
-10 0 3 -6 1 -12 -5 -10 -7 -120 -45 -168 -57 -3 -1 -22 -9 -44 -18 -21 -9
-41 -17 -43 -17 -7 0 -63 -25 -183 -83 -139 -66 -285 -154 -385 -230 -102 -78
-115 -89 -115 -98 0 -5 11 -26 23 -47 45 -71 57 -92 58 -99 1 -5 14 -24 29
-43 15 -19 28 -38 29 -43 1 -8 15 -32 68 -114 18 -28 33 -56 33 -62 0 -6 5
-11 10 -11 6 0 10 -6 10 -14 0 -7 6 -18 13 -24 9 -8 27 1 67 35 88 73 251 178
378 241 115 57 262 119 301 127 11 2 28 8 38 13 16 8 115 37 164 48 10 2 28 6
40 9 11 2 28 6 37 9 9 3 32 8 50 11 17 3 46 7 62 10 85 14 124 19 250 31 129
12 365 6 483 -12 20 -3 47 -7 60 -9 12 -2 45 -8 72 -14 28 -6 66 -14 85 -18
18 -3 45 -12 59 -19 13 -7 28 -11 33 -8 4 3 8 0 8 -7 0 -7 3 -10 6 -6 7 7 112
-37 177 -75 26 -15 52 -28 57 -28 6 0 10 -4 10 -10 0 -5 6 -10 14 -10 8 0 16
-3 18 -8 2 -4 23 -23 48 -42 56 -44 62 -50 135 -135 33 -39 69 -88 80 -110 11
-22 23 -42 27 -45 6 -5 46 -92 49 -108 0 -4 5 -15 11 -26 18 -34 63 -202 74
-281 14 -101 26 -509 16 -542 -3 -10 -186 -13 -825 -13 -865 -1 -938 -2 -1117
-24 -234 -29 -469 -90 -630 -164 -41 -19 -84 -38 -95 -43 -11 -5 -33 -18 -50
-29 -16 -11 -37 -23 -45 -26 -65 -29 -258 -202 -308 -276 -13 -21 -27 -38 -31
-38 -3 0 -17 -21 -31 -47 -13 -27 -27 -50 -30 -53 -9 -8 -82 -177 -81 -187 0
-2 -6 -21 -14 -43 -8 -22 -12 -40 -8 -40 3 0 1 -6 -4 -12 -6 -7 -11 -20 -11
-28 0 -8 -3 -27 -6 -41 -11 -48 -22 -144 -21 -172 1 -15 -1 -27 -4 -27 -8 0
-6 -58 1 -66 4 -3 2 -19 -2 -35 -5 -17 -5 -29 0 -29 6 0 6 -10 0 -25 -5 -14
-6 -25 -2 -25 4 0 8 -25 10 -55 3 -70 25 -177 57 -270 30 -90 89 -220 104
-230 6 -3 9 -10 6 -14 -2 -5 4 -16 15 -26 11 -10 20 -22 20 -27 0 -16 114
-150 180 -211 128 -119 240 -190 445 -282 64 -29 179 -67 240 -81 6 -1 28 -7
50 -12 39 -11 91 -22 130 -27 11 -2 20 -4 20 -5 0 -1 16 -3 35 -5 19 -2 49 -6
66 -9 17 -2 71 -8 120 -11 49 -4 92 -9 96 -11 4 -2 9 0 13 6 4 6 13 7 23 2 26
-13 366 -2 422 13 8 2 44 7 80 10 36 4 68 9 72 11 4 3 20 7 35 9 35 5 69 12
93 20 10 3 27 8 38 10 28 5 227 72 249 84 10 5 53 25 95 45 42 20 80 41 83 46
4 6 10 8 15 5 4 -3 13 2 20 10 7 8 18 15 25 15 8 0 15 4 17 8 2 5 28 25 58 45
52 34 127 97 194 162 25 24 90 100 156 182 6 7 10 16 10 21 0 5 9 17 20 27 11
10 17 22 14 26 -3 5 0 9 5 9 6 0 11 -17 12 -37 1 -84 1 -149 -1 -158 -1 -5 -2
-14 0 -20 2 -13 2 -208 0 -220 -1 -6 -2 -14 0 -20 4 -25 1 -216 -4 -224 -4 -5
-2 -12 4 -16 6 -4 8 -11 5 -16 -4 -5 0 -9 7 -10 71 -4 85 -3 81 5 -4 5 -1 6 6
2 16 -10 140 -13 134 -4 -2 5 7 4 21 -2 15 -5 28 -6 31 0 3 6 15 6 30 0 15 -6
27 -6 30 0 4 6 13 7 23 1 11 -6 24 -6 34 0 10 6 19 6 23 0 3 -6 15 -7 28 -2
12 5 32 5 44 0 13 -5 25 -4 28 2 4 5 13 6 21 1 21 -12 74 -3 68 12 -2 6 -6
729 -8 1606 -2 877 -6 1605 -8 1618 -1 12 -7 22 -11 22 -5 0 -5 4 -2 10 3 5 1
38 -6 72 -6 35 -13 70 -14 78 -4 30 -17 86 -37 154 -11 38 -21 76 -23 85 -9
35 -38 109 -76 187 -21 46 -39 88 -39 93 0 6 -4 11 -10 11 -5 0 -10 5 -10 11
0 6 -13 30 -30 54 -16 24 -30 48 -30 53 0 6 -4 12 -8 14 -4 2 -23 23 -42 48
-64 85 -226 235 -326 302 -207 139 -491 244 -764 283 -25 3 -58 8 -75 11 -83
13 -597 29 -607 19z m1484 -2580 c3 -20 0 -748 -4 -772 -1 -7 -5 -13 -10 -13
-4 0 -7 -3 -6 -7 5 -20 -145 -286 -182 -323 -3 -3 -23 -27 -45 -55 -78 -98
-186 -197 -297 -270 -74 -50 -258 -150 -258 -140 0 2 -19 -5 -42 -15 -52 -23
-201 -67 -255 -75 -21 -3 -50 -8 -63 -10 -51 -10 -77 -14 -145 -20 -78 -7
-321 -7 -375 0 -19 3 -57 7 -85 9 -27 2 -86 12 -130 21 -103 22 -96 20 -128
33 -16 7 -32 12 -38 12 -38 0 -289 127 -297 151 -2 5 -9 9 -16 9 -6 0 -18 8
-27 18 -8 9 -28 28 -44 42 -17 14 -46 45 -65 70 -19 25 -37 47 -40 50 -27 25
-114 235 -105 251 4 5 2 9 -2 9 -5 0 -9 8 -10 18 -1 9 -4 33 -8 52 -7 44 -7
237 -1 270 3 13 8 42 12 65 8 57 59 184 96 241 36 54 126 149 172 180 16 10
44 29 62 42 19 12 34 20 34 16 0 -3 12 4 28 14 47 34 269 102 379 117 16 2 28
4 28 5 0 2 39 6 150 15 55 4 101 8 102 9 1 1 364 2 807 2 803 0 804 0 808 -21z"/>
<path d="M35108 23945 c-2 -1 -37 -6 -78 -10 -97 -9 -113 -11 -185 -24 -132
-25 -136 -25 -225 -49 -135 -36 -411 -145 -430 -171 -3 -3 -27 -17 -53 -30
-103 -52 -231 -149 -350 -266 -97 -95 -143 -150 -214 -251 -28 -42 -54 -76
-58 -77 -4 -1 -7 188 -7 421 l1 422 -22 1 c-98 4 -578 1 -583 -3 -3 -4 -6
-1060 -6 -2349 0 -2239 1 -2344 18 -2356 11 -8 21 -10 27 -4 6 6 19 6 33 1 14
-6 26 -6 29 0 4 6 13 7 24 1 10 -6 23 -6 31 -1 8 5 19 6 25 2 14 -9 47 -9 68
1 9 4 17 4 17 0 0 -4 49 -8 110 -8 60 0 110 4 110 8 0 5 4 5 10 2 16 -10 80
-12 80 -3 0 5 9 4 19 -2 15 -7 22 -7 28 2 4 7 8 603 10 1323 1 1220 3 1370 18
1450 3 17 7 48 9 70 2 22 8 60 14 85 6 25 14 59 17 75 10 48 10 49 18 63 5 6
6 16 2 21 -3 5 -1 12 4 15 4 3 11 18 14 33 3 16 11 42 18 58 7 17 13 32 14 35
24 71 131 279 155 300 3 3 17 23 32 45 58 84 158 189 263 274 96 76 330 201
425 226 8 3 53 15 100 29 86 25 131 35 185 41 17 2 30 4 30 5 0 2 14 4 30 5
17 2 30 4 30 5 0 5 149 12 270 12 192 0 312 -13 450 -48 33 -9 68 -18 78 -19
9 -2 23 -7 30 -12 6 -4 21 -9 31 -10 55 -9 323 -157 334 -185 2 -4 8 -8 13 -8
11 0 144 -133 183 -184 72 -93 143 -226 189 -353 28 -78 67 -226 74 -283 2
-19 6 -44 9 -55 6 -23 16 -158 18 -227 1 -27 4 -48 8 -48 4 0 4 -10 -1 -21 -4
-12 -4 -41 -1 -65 4 -25 3 -44 -2 -44 -5 0 -6 -10 -2 -22 4 -13 7 -30 6 -38
-5 -50 -2 -301 3 -310 3 -5 2 -10 -3 -10 -8 0 -7 -63 2 -87 3 -7 1 -15 -4 -18
-6 -3 -6 -15 0 -30 5 -14 6 -25 2 -25 -8 0 -6 -64 2 -87 3 -7 1 -15 -4 -18 -6
-3 -6 -15 0 -30 5 -14 6 -25 2 -25 -8 0 -6 -64 2 -87 3 -7 1 -15 -4 -18 -6 -3
-6 -15 0 -30 5 -14 6 -25 2 -25 -8 0 -7 -64 2 -86 3 -7 2 -15 -2 -18 -7 -8 -4
-134 4 -147 3 -5 0 -9 -6 -9 -7 0 -9 -8 -4 -22 4 -13 7 -30 6 -38 -5 -52 -2
-381 3 -390 3 -5 2 -10 -2 -10 -5 0 -8 -15 -6 -32 2 -18 4 -40 4 -48 -3 -191
-1 -382 4 -390 3 -5 2 -10 -2 -10 -5 0 -8 -15 -6 -32 2 -18 4 -40 4 -48 -3
-100 -1 -141 4 -150 3 -5 2 -10 -3 -10 -8 0 -7 -63 2 -87 3 -7 1 -15 -4 -18
-6 -3 -6 -15 0 -30 5 -14 6 -25 2 -25 -8 0 -6 -64 2 -87 3 -7 1 -15 -3 -18 -5
-3 -7 -14 -4 -25 3 -11 9 -18 13 -15 5 3 11 1 15 -4 4 -7 15 -7 30 -1 14 5 25
6 25 2 0 -4 14 -7 30 -7 17 0 30 3 30 7 0 4 10 4 23 -1 27 -11 36 -11 62 -1
11 4 29 4 40 0 11 -4 28 -3 38 2 9 5 17 5 17 0 0 -8 69 -7 77 2 3 3 15 1 27
-4 13 -4 29 -4 36 0 8 5 19 6 24 3 5 -4 22 -7 36 -7 14 0 31 3 36 7 5 3 16 2
24 -3 13 -8 41 -2 50 11 8 11 4 2891 -4 2974 -8 92 -15 156 -21 185 -3 13 -7
40 -10 60 -8 51 -24 125 -45 210 -7 25 -13 52 -15 60 -5 23 -43 129 -67 190
-63 157 -200 379 -293 476 -11 12 -29 32 -41 45 -26 31 -121 117 -164 149 -18
14 -39 31 -46 38 -7 6 -16 12 -19 12 -9 0 -98 62 -107 75 -4 6 -8 6 -8 1 0 -5
-6 -3 -14 3 -29 24 -213 111 -250 118 -11 2 -24 7 -30 12 -6 4 -38 16 -71 25
-33 10 -82 24 -109 32 -26 8 -51 13 -53 10 -3 -3 -14 -1 -23 4 -10 5 -40 12
-66 15 -26 4 -51 8 -54 10 -3 2 -33 7 -65 10 -33 4 -69 9 -80 12 -22 5 -462
13 -467 8z"/>
<path d="M40448 23944 c-2 -1 -33 -5 -68 -8 -36 -2 -65 -5 -65 -6 0 -1 -11 -3
-25 -4 -100 -10 -227 -37 -370 -80 -131 -39 -181 -58 -304 -117 -22 -11 -46
-19 -53 -19 -7 0 -13 -4 -13 -8 0 -5 -20 -17 -45 -28 -25 -10 -45 -21 -45 -25
0 -4 -9 -11 -21 -14 -12 -4 -55 -30 -95 -59 -41 -28 -82 -55 -91 -61 -10 -5
-22 -14 -29 -20 -6 -5 -31 -26 -55 -45 -86 -70 -216 -196 -286 -280 -61 -74
-133 -170 -133 -179 0 -5 -4 -11 -9 -13 -4 -1 -33 -46 -64 -98 -31 -52 -61
-101 -67 -107 -6 -7 -9 -13 -6 -13 3 0 -8 -26 -23 -57 -39 -79 -65 -138 -86
-198 -10 -27 -23 -56 -28 -62 -5 -7 -7 -13 -3 -13 3 0 -1 -16 -9 -36 -8 -20
-17 -46 -20 -58 -2 -11 -16 -66 -30 -121 -25 -101 -43 -195 -60 -325 -23 -175
-23 -566 0 -664 3 -11 7 -39 10 -61 17 -167 92 -436 169 -617 9 -21 16 -40 16
-43 1 -9 58 -115 70 -130 7 -8 9 -15 5 -15 -5 0 -2 -8 6 -17 8 -10 24 -35 34
-55 11 -21 23 -38 27 -38 5 0 8 -5 8 -11 0 -5 19 -38 42 -72 49 -72 42 -63
110 -147 79 -98 88 -107 162 -179 37 -36 76 -73 85 -82 15 -15 110 -91 159
-127 12 -9 28 -22 35 -27 15 -13 133 -87 185 -117 51 -29 229 -118 236 -118 4
0 25 -9 49 -19 83 -38 309 -109 401 -127 11 -2 32 -6 46 -9 14 -3 36 -8 50
-10 14 -2 36 -7 50 -10 14 -3 48 -8 75 -11 28 -3 61 -7 75 -9 213 -30 633 -20
838 21 59 11 83 17 157 34 145 34 170 40 185 47 8 3 17 7 20 8 3 1 13 5 22 9
9 4 22 9 30 10 16 4 33 10 138 54 97 41 211 100 288 148 29 19 55 34 58 34 2
0 10 5 17 10 7 6 52 41 101 77 76 58 223 194 293 273 l22 25 -31 35 c-16 19
-53 62 -81 95 -29 32 -63 71 -77 86 -14 15 -41 46 -60 69 -19 23 -53 62 -74
86 l-39 44 -15 -22 c-9 -13 -19 -25 -24 -28 -4 -3 -38 -35 -75 -71 -71 -69
-167 -145 -243 -194 -25 -15 -61 -39 -81 -52 -19 -13 -40 -23 -47 -23 -7 0
-12 -4 -12 -10 0 -5 -3 -9 -7 -8 -5 1 -42 -14 -83 -34 -69 -33 -234 -94 -277
-102 -10 -2 -45 -11 -78 -19 -33 -9 -76 -18 -95 -21 -19 -3 -46 -8 -60 -11
-31 -6 -125 -15 -210 -20 -36 -2 -67 -5 -70 -6 -3 -1 -9 -1 -13 0 -4 1 -67 3
-140 6 -73 2 -148 7 -167 9 -19 3 -57 8 -84 12 -27 3 -58 8 -70 11 -12 2 -37
7 -56 10 -19 3 -43 10 -53 15 -10 5 -21 7 -24 4 -3 -3 -15 0 -26 5 -11 6 -29
12 -41 14 -33 5 -164 53 -244 91 -41 19 -76 34 -78 34 -2 0 -34 18 -70 40 -36
22 -70 40 -75 40 -5 0 -9 5 -9 10 0 6 -5 10 -11 10 -36 0 -287 224 -374 335
-22 28 -43 52 -46 55 -6 5 -77 112 -96 145 -34 57 -113 225 -113 239 0 9 -5
16 -12 16 -6 0 -9 3 -5 6 3 3 -3 26 -13 50 -11 24 -19 45 -18 47 0 1 -7 29
-17 62 -10 33 -18 67 -19 75 -1 8 -5 31 -9 50 -11 55 -17 91 -23 145 -11 89
-11 100 9 99 9 -1 17 2 17 7 0 6 7 6 18 0 11 -6 24 -6 35 0 9 6 17 6 17 2 0
-10 41 -10 57 0 7 4 14 4 17 -1 6 -9 59 -8 75 3 6 3 11 2 11 -2 0 -10 41 -10
57 0 7 4 14 4 17 -1 6 -9 59 -8 75 3 6 3 11 2 11 -2 0 -10 41 -10 57 0 7 4 14
4 17 -1 6 -9 59 -8 75 3 6 3 11 2 11 -2 0 -10 41 -10 57 0 7 4 14 4 17 -1 5
-9 59 -8 75 2 5 4 12 2 16 -3 3 -7 15 -7 29 -1 13 5 26 6 29 4 8 -8 102 -8
114 -1 7 4 14 3 18 -3 4 -7 12 -7 24 0 10 5 21 7 24 3 9 -9 86 -9 80 -1 -2 5
7 4 21 -2 17 -6 35 -6 52 0 14 6 23 6 20 1 -3 -4 12 -5 34 -1 22 4 40 4 40 -1
0 -5 11 -4 24 1 13 5 26 6 29 4 8 -8 102 -8 114 -1 7 4 14 3 18 -3 4 -7 12 -7
25 0 12 6 21 7 25 0 4 -6 15 -6 30 0 14 5 25 6 25 2 0 -9 104 -7 119 2 6 4 11
3 11 -3 0 -7 8 -7 25 -1 15 6 27 6 30 0 3 -6 15 -6 29 0 13 5 26 6 29 4 8 -8
102 -8 114 -1 7 4 14 3 18 -3 4 -7 12 -7 24 0 10 5 21 7 24 3 9 -9 86 -9 80
-1 -2 5 7 4 21 -2 17 -6 35 -6 52 0 14 6 23 6 20 1 -3 -4 12 -5 34 -1 22 4 40
4 40 -1 0 -5 11 -4 24 1 13 5 26 6 29 4 8 -8 102 -8 114 -1 7 4 14 3 18 -3 4
-7 12 -7 25 0 12 6 21 7 25 0 4 -6 15 -6 30 0 14 5 25 6 25 2 0 -9 104 -7 119
2 6 4 11 3 11 -3 0 -7 8 -7 25 -1 15 6 27 6 30 0 3 -6 15 -6 29 0 13 5 26 6
29 4 8 -8 102 -8 114 -1 7 4 14 3 18 -3 4 -7 12 -7 24 0 10 5 21 7 24 3 9 -9
86 -9 80 -1 -2 5 7 4 21 -2 17 -6 35 -6 52 0 14 6 23 6 20 1 -3 -4 12 -5 34
-1 22 4 40 4 40 -1 0 -5 10 -5 23 0 12 5 31 5 42 1 11 -4 34 -4 52 1 18 4 33
4 33 0 0 -9 42 -7 57 2 7 4 14 4 17 -1 6 -9 59 -8 75 3 6 3 11 2 11 -2 0 -10
41 -10 57 0 7 4 14 4 17 -1 6 -9 59 -8 75 3 6 3 11 2 11 -2 0 -10 41 -10 57 0
7 4 14 4 17 -1 6 -9 59 -8 75 3 6 3 11 2 11 -2 0 -10 41 -10 57 0 7 4 14 4 17
-1 5 -9 64 -8 73 2 24 24 15 479 -12 616 -3 14 -8 43 -11 65 -3 22 -12 66 -19
98 -7 31 -11 57 -8 57 3 0 1 6 -4 13 -6 6 -14 30 -18 52 -4 22 -18 74 -32 115
-14 41 -26 80 -28 85 -20 88 -156 366 -241 494 -27 40 -53 81 -59 90 -5 9 -12
18 -15 21 -3 3 -32 39 -65 80 -99 126 -250 269 -391 373 -69 51 -243 157 -291
178 -18 8 -33 16 -33 19 0 3 -10 6 -22 7 -11 1 -24 6 -27 11 -6 8 -210 90
-246 99 -5 1 -44 12 -85 23 -41 12 -86 23 -100 26 -14 3 -32 7 -40 9 -8 3 -32
7 -54 11 -21 3 -48 8 -60 10 -25 5 -65 11 -126 20 -49 6 -457 14 -462 8z m224
-549 c5 -6 8 -5 8 3 0 7 4 11 9 7 5 -3 45 -7 88 -10 43 -3 92 -7 108 -10 17
-3 44 -7 60 -10 94 -16 197 -43 285 -76 47 -17 93 -33 103 -36 9 -3 17 -10 17
-16 0 -6 3 -8 6 -4 7 7 106 -40 115 -55 3 -5 13 -10 21 -11 14 -3 138 -83 148
-97 3 -4 10 -9 16 -11 16 -5 130 -106 168 -147 65 -71 101 -111 113 -126 25
-29 133 -190 133 -197 0 -4 16 -33 35 -64 19 -32 32 -62 29 -66 -3 -5 -1 -9 3
-9 5 0 15 -17 23 -37 7 -21 20 -54 28 -73 9 -19 17 -44 19 -55 2 -11 7 -29 12
-40 19 -45 32 -93 51 -195 5 -25 12 -56 15 -70 3 -14 8 -50 11 -80 3 -30 8
-58 11 -62 2 -5 1 -9 -4 -9 -4 -1 -756 -3 -1670 -3 -1146 -1 -1663 1 -1664 9
-4 24 7 131 16 165 2 8 7 31 10 50 12 71 40 171 73 260 3 8 6 17 6 20 3 21 87
196 118 249 21 34 38 65 38 68 0 7 53 77 65 85 7 5 7 8 0 8 -5 0 -3 6 5 13 8
7 33 35 55 62 80 101 207 216 319 290 44 30 86 58 91 63 14 11 159 80 214 101
61 24 86 33 86 31 0 -1 14 4 30 10 17 7 57 19 90 27 82 20 95 23 135 28 19 3
45 8 58 11 12 2 64 7 114 9 51 3 93 6 94 8 7 7 80 0 86 -8z"/>
</g>
</svg>
