<svg width="135" height="27" viewBox="0 0 135 27" fill="none" xmlns="http://www.w3.org/2000/svg">
<path d="M0.0160002 21H4.384L4.384 0.223999H0.0160001L0.0160002 21ZM15.0459 21.224C19.8339 21.224 23.3059 18.004 23.3059 13.468C23.3059 8.932 19.8339 5.712 15.0459 5.712C10.2579 5.712 6.75788 8.932 6.75788 13.468C6.75788 18.004 10.2579 21.224 15.0459 21.224ZM15.0459 17.64C12.8619 17.64 11.1819 16.072 11.1819 13.468C11.1819 10.864 12.8619 9.296 15.0459 9.296C17.2299 9.296 18.8819 10.864 18.8819 13.468C18.8819 16.072 17.2299 17.64 15.0459 17.64ZM36.8935 21H42.1855L35.3535 12.32L41.6255 5.936H36.4175L30.0335 11.984L30.0335 0.223999H25.6655L25.6655 21H30.0335L30.0335 17.164L32.1335 15.092L36.8935 21ZM50.1017 21.224C54.8897 21.224 58.3617 18.004 58.3617 13.468C58.3617 8.932 54.8897 5.712 50.1017 5.712C45.3137 5.712 41.8137 8.932 41.8137 13.468C41.8137 18.004 45.3137 21.224 50.1017 21.224ZM50.1017 17.64C47.9177 17.64 46.2377 16.072 46.2377 13.468C46.2377 10.864 47.9177 9.296 50.1017 9.296C52.2857 9.296 53.9377 10.864 53.9377 13.468C53.9377 16.072 52.2857 17.64 50.1017 17.64ZM69.0653 6.16C66.6293 6.16 64.5853 7.224 63.3813 9.184L63.3813 6.272H61.4773L61.4773 26.432H63.4653L63.4653 18.228C64.6973 20.132 66.7133 21.14 69.0653 21.14C73.2653 21.14 76.4013 18.116 76.4013 13.636C76.4013 9.184 73.2653 6.16 69.0653 6.16ZM68.9253 19.376C65.7893 19.376 63.4373 17.08 63.4373 13.636C63.4373 10.22 65.7893 7.896 68.9253 7.896C72.0333 7.896 74.4133 10.22 74.4133 13.636C74.4133 17.08 72.0333 19.376 68.9253 19.376ZM79.8939 21H81.8819L81.8819 0.223999H79.8939L79.8939 21ZM92.0054 6.16C89.6814 6.16 87.4974 6.888 86.0134 8.148L86.9094 9.632C88.1134 8.568 89.9054 7.896 91.8094 7.896C94.5534 7.896 95.9814 9.268 95.9814 11.788L95.9814 12.684H91.3054C87.0774 12.684 85.6214 14.588 85.6214 16.856C85.6214 19.404 87.6654 21.14 90.9974 21.14C93.4334 21.14 95.1694 20.216 96.0654 18.704L96.0654 21H97.9694L97.9694 11.872C97.9694 8.064 95.8134 6.16 92.0054 6.16ZM91.3054 19.572C88.9534 19.572 87.5814 18.508 87.5814 16.8C87.5814 15.288 88.5054 14.168 91.3614 14.168H95.9814L95.9814 16.576C95.1974 18.508 93.5454 19.572 91.3054 19.572ZM110.313 6.16C107.765 6.16 105.777 7.196 104.713 8.988L104.713 6.272H102.809L102.809 21H104.797L104.797 13.272C104.797 9.912 106.785 7.952 109.949 7.952C112.749 7.952 114.373 9.548 114.373 12.656L114.373 21H116.361L116.361 12.46C116.361 8.232 113.897 6.16 110.313 6.16ZM134.105 13.636C134.105 9.212 131.109 6.16 126.965 6.16C122.821 6.16 119.769 9.268 119.769 13.636C119.769 18.004 122.905 21.14 127.497 21.14C129.821 21.14 131.865 20.3 133.181 18.732L132.061 17.444C130.941 18.732 129.345 19.376 127.553 19.376C124.333 19.376 121.981 17.332 121.757 14.252H134.077C134.077 14.028 134.105 13.804 134.105 13.636ZM126.965 7.868C129.849 7.868 131.949 9.884 132.201 12.768H121.757C122.009 9.884 124.109 7.868 126.965 7.868Z" fill="#1A1C32"/>
</svg>
